<svg width="905" height="234" viewBox="0 0 905 234" fill="none" xmlns="http://www.w3.org/2000/svg">
<g clip-path="url(#clip0_360:334)">
<path d="M189.638 38.0266L136.744 7.55781C119.438 -2.43594 98.2313 -2.43594 80.925 7.55781L27.7875 38.0266C10.725 48.0203 0 66.5453 0 86.2891V147.47C0 167.458 10.725 185.739 27.7875 195.733L80.6812 226.445C97.9875 236.439 119.194 236.439 136.5 226.445L189.394 195.733C206.7 185.739 217.181 167.458 217.181 147.47V86.2891C217.669 66.5453 206.944 48.0203 189.638 38.0266ZM108.712 171.358C78.7312 171.358 54.3562 146.983 54.3562 117.002C54.3562 87.0203 78.7312 62.6453 108.712 62.6453C138.694 62.6453 163.312 87.0203 163.312 117.002C163.312 146.983 138.938 171.358 108.712 171.358Z" fill="#56FBB1"/>
<path d="M398.808 55.3291H433.176V174.767H412.458V73.3666L379.308 174.767H357.614L324.464 74.5854V174.767H303.745V55.3291H338.358L368.583 151.123L398.808 55.3291Z" fill="#0A3149"/>
<path d="M537.501 147.712C532.626 165.749 517.27 176.962 496.064 176.962C469.495 176.962 452.433 158.924 452.433 131.868C452.433 104.812 469.495 86.7744 496.551 86.7744C526.533 86.7744 542.133 109.199 533.845 137.231H473.151C474.858 151.368 482.658 159.656 496.308 159.656C505.814 159.656 513.37 155.268 516.295 147.468H537.501V147.712ZM473.639 123.581H515.564C516.783 111.393 509.714 103.349 496.308 103.349C483.633 103.349 475.589 110.418 473.639 123.581Z" fill="#0A3149"/>
<path d="M615.989 55.3296H635.489V174.767H615.989V162.092C609.408 171.598 599.414 177.205 586.983 177.205C564.558 177.205 548.47 159.167 548.47 132.111C548.47 105.055 564.07 87.0171 586.983 87.0171C599.414 87.0171 609.408 92.3796 615.989 102.13V55.3296ZM616.72 132.111C616.72 115.292 607.214 104.08 592.833 104.08C578.208 104.08 568.701 115.292 568.701 132.111C568.701 148.93 578.208 160.142 592.833 160.142C607.214 159.898 616.72 148.93 616.72 132.111Z" fill="#0A3149"/>
<path d="M707.639 89.4557H727.139V174.768H707.639V159.412C701.545 170.868 692.039 176.718 680.095 176.718C656.451 176.718 652.551 153.074 652.551 137.962V89.2119H672.051V137.718C672.051 148.931 674.733 159.656 686.92 159.656C699.595 159.656 707.639 148.443 707.639 132.599V89.4557Z" fill="#0A3149"/>
<path d="M741.52 144.056H760.289C759.07 154.537 766.87 161.362 780.276 161.362C790.758 161.362 797.583 157.218 797.583 151.124C797.583 134.062 742.739 146.249 742.739 114.318C742.739 97.2557 758.583 86.7744 779.301 86.7744C802.214 86.7744 818.789 99.4494 815.133 118.949H796.12C798.558 109.199 790.758 102.618 779.058 102.618C769.064 102.618 762.726 107.006 762.726 113.099C762.726 130.406 817.814 117.243 817.814 149.662C817.814 166.968 802.214 176.962 780.033 176.962C755.901 176.962 740.058 164.774 741.52 144.056Z" fill="#0A3149"/>
<path d="M905.076 126.261V174.767H887.039V159.898C880.701 170.867 870.22 177.205 856.326 177.205C838.289 177.205 827.076 166.723 827.076 151.855C827.076 134.548 842.189 124.311 866.076 124.311C872.658 124.311 879.483 125.042 885.576 126.505C885.576 113.586 880.945 104.08 867.295 104.08C857.058 104.08 850.72 109.198 852.67 118.705H832.926C828.295 99.6921 845.114 87.0171 867.295 87.0171C892.401 87.0171 905.076 102.373 905.076 126.261ZM886.308 141.13C880.701 139.18 873.876 138.205 867.783 138.205C853.889 138.205 847.064 143.323 847.064 151.123C847.064 157.948 852.183 161.605 860.47 161.605C872.901 161.605 883.139 153.561 886.308 141.13Z" fill="#0A3149"/>
</g>
<defs>
<clipPath id="clip0_360:334">
<rect width="904.8" height="234" fill="white"/>
</clipPath>
</defs>
</svg>