<svg width="33" height="35" viewBox="0 0 33 35" fill="none" xmlns="http://www.w3.org/2000/svg">
<path d="M28.4313 5.6417L20.571 1.11385C17.9992 -0.371284 14.8478 -0.371284 12.276 1.11385L4.3794 5.6417C1.8438 7.12683 0.25 9.87976 0.25 12.8138V21.9057C0.25 24.876 1.8438 27.5927 4.3794 29.0778L12.2397 33.6419C14.8116 35.127 17.9629 35.127 20.5348 33.6419L28.3951 29.0778C30.9669 27.5927 32.5245 24.876 32.5245 21.9057V12.8138C32.5969 9.87976 31.0031 7.12683 28.4313 5.6417ZM16.4054 25.4556C11.95 25.4556 8.32768 21.8333 8.32768 17.3779C8.32768 12.9225 11.95 9.3002 16.4054 9.3002C20.8608 9.3002 24.5193 12.9225 24.5193 17.3779C24.5193 21.8333 20.897 25.4556 16.4054 25.4556Z" fill="#A3A3A3"/>
</svg>
