<svg width="597" height="126" viewBox="0 0 597 126" fill="none" xmlns="http://www.w3.org/2000/svg">
<path d="M192.04 85H183V61.56C183 58.9467 182.36 56.8933 181.08 55.4C179.8 53.8533 178.04 53.08 175.8 53.08C173.24 53.08 171.24 53.9333 169.8 55.64C168.413 57.3467 167.72 59.6933 167.72 62.68V85H158.6V45.8H167.56V49.24C170.013 46.3067 173.4 44.84 177.72 44.84C182.573 44.84 186.227 46.5467 188.68 49.96C191.72 46.5467 195.8 44.84 200.92 44.84C206.04 44.84 209.907 46.3333 212.52 49.32C215.187 52.2533 216.52 56.5467 216.52 62.2V85H207.4V61.56C207.4 58.9467 206.76 56.8933 205.48 55.4C204.2 53.8533 202.44 53.08 200.2 53.08C197.64 53.08 195.64 53.96 194.2 55.72C192.76 57.4267 192.04 59.7467 192.04 62.68V85ZM260.887 64.92L260.807 68.12H234.007C234.22 71.0533 235.26 73.3733 237.127 75.08C238.994 76.7867 241.394 77.64 244.327 77.64C248.54 77.64 251.9 75.8 254.407 72.12L260.567 77.88C256.407 83.2133 250.994 85.88 244.327 85.88C238.407 85.88 233.66 84.0133 230.087 80.28C226.46 76.4933 224.647 71.6133 224.647 65.64C224.647 59.8267 226.3 54.8933 229.607 50.84C232.967 46.84 237.42 44.84 242.967 44.84C248.887 44.84 253.34 46.8133 256.327 50.76C259.367 54.7067 260.887 59.4267 260.887 64.92ZM243.047 53.16C240.754 53.16 238.86 53.88 237.367 55.32C235.927 56.76 234.967 58.6 234.487 60.84H251.207C251.154 58.6533 250.434 56.84 249.047 55.4C247.66 53.9067 245.66 53.16 243.047 53.16ZM287.751 44.84C292.125 44.84 295.778 46.12 298.711 48.68V28.92H307.831V85H298.871V81.48C296.098 84.4133 292.391 85.88 287.751 85.88C282.205 85.88 277.618 83.96 273.991 80.12C270.418 76.2267 268.631 71.32 268.631 65.4C268.631 59.48 270.418 54.5733 273.991 50.68C277.565 46.7867 282.151 44.84 287.751 44.84ZM296.071 56.44C294.205 54.0933 291.645 52.92 288.391 52.92C285.138 52.92 282.578 54.0933 280.711 56.44C278.845 58.7867 277.911 61.7733 277.911 65.4C277.911 69.0267 278.845 72.0133 280.711 74.36C282.578 76.7067 285.138 77.88 288.391 77.88C291.645 77.88 294.205 76.7067 296.071 74.36C297.938 72.0133 298.871 69.0267 298.871 65.4C298.871 61.7733 297.938 58.7867 296.071 56.44ZM317.873 45.8H326.993V69.24C326.993 71.8533 327.633 73.9333 328.913 75.48C330.193 76.9733 332.006 77.72 334.353 77.72C336.859 77.72 338.833 76.84 340.273 75.08C341.766 73.2667 342.513 70.8667 342.513 67.88V45.8H351.633V85H342.673V81.8C340.166 84.52 336.779 85.88 332.513 85.88C328.033 85.88 324.459 84.36 321.793 81.32C319.179 78.2267 317.873 73.9867 317.873 68.6V45.8ZM378.659 70.2L373.459 68.92C365.512 67.0533 361.539 62.92 361.539 56.52C361.539 53 362.872 50.1733 365.539 48.04C368.205 45.9067 371.645 44.84 375.859 44.84C381.512 44.84 386.445 47.0267 390.659 51.4L384.819 57.64C382.419 54.3333 379.352 52.68 375.619 52.68C374.019 52.68 372.712 53.0533 371.699 53.8C370.739 54.4933 370.259 55.3467 370.259 56.36C370.259 58.1733 371.539 59.4 374.099 60.04L380.259 61.48C388.259 63.2933 392.259 67.3733 392.259 73.72C392.259 77.3467 390.872 80.28 388.099 82.52C385.379 84.76 381.592 85.88 376.739 85.88C369.912 85.88 364.499 83.3467 360.499 78.28L366.259 72.36C369.139 76.1467 372.872 78.04 377.459 78.04C381.459 78.04 383.459 76.7067 383.459 74.04C383.459 72.3333 381.859 71.0533 378.659 70.2ZM411.911 85.88C408.125 85.88 404.978 84.8133 402.471 82.68C399.965 80.4933 398.711 77.5867 398.711 73.96C398.711 69.8 400.205 66.5733 403.191 64.28C406.178 61.9867 410.125 60.84 415.031 60.84C417.485 60.84 420.125 61.2933 422.951 62.2V59.56C422.951 57.64 422.231 56.0933 420.791 54.92C419.351 53.6933 417.511 53.08 415.271 53.08C411.165 53.08 408.071 54.9733 405.991 58.76L399.831 53C401.271 50.3867 403.378 48.3867 406.151 47C408.978 45.56 412.045 44.84 415.351 44.84C420.525 44.84 424.605 46.12 427.591 48.68C430.578 51.24 432.071 54.8933 432.071 59.64V85H423.111V81.96C420.178 84.5733 416.445 85.88 411.911 85.88ZM407.831 73.32C407.831 74.6533 408.338 75.7467 409.351 76.6C410.418 77.4533 411.885 77.88 413.751 77.88C417.591 77.88 420.658 76.76 422.951 74.52V70.04C420.071 68.9733 417.351 68.44 414.791 68.44C412.658 68.44 410.951 68.8667 409.671 69.72C408.445 70.5733 407.831 71.7733 407.831 73.32ZM458.987 74.328L458.895 74.788H442.105C442.074 74.9413 442.059 75.248 442.059 75.708C442.059 77.7933 442.626 79.4187 443.761 80.584C444.926 81.7493 446.536 82.332 448.591 82.332C451.259 82.332 453.574 81.228 455.537 79.02L457.607 81.412C454.97 84.1413 451.826 85.506 448.177 85.506C445.233 85.506 442.887 84.6013 441.139 82.792C439.422 80.9827 438.563 78.5907 438.563 75.616C438.563 71.9053 439.698 68.6853 441.967 65.956C444.206 63.2573 447.104 61.908 450.661 61.908C453.605 61.908 455.767 62.8587 457.147 64.76C458.558 66.6307 459.263 68.8847 459.263 71.522C459.263 72.5953 459.171 73.5307 458.987 74.328ZM450.293 65.128C448.422 65.128 446.828 65.726 445.509 66.922C444.19 68.118 443.24 69.728 442.657 71.752H455.905C455.966 69.6973 455.506 68.0873 454.525 66.922C453.544 65.726 452.133 65.128 450.293 65.128ZM463.793 62.46H467.749L472.119 70.878L478.927 62.46H483.159L474.051 73.408L480.537 85H476.581L471.705 75.892L464.299 85H460.067L469.773 73.408L463.793 62.46ZM508.997 72.074C508.997 75.8767 507.817 79.0813 505.455 81.688C503.094 84.264 500.165 85.552 496.669 85.552C493.633 85.552 491.287 84.2947 489.631 81.78L487.929 93.924H484.525L488.941 62.46H492.207L491.839 65.312C494.078 63.0733 496.731 61.954 499.797 61.954C502.496 61.954 504.704 62.9507 506.421 64.944C508.139 66.9373 508.997 69.314 508.997 72.074ZM505.455 72.35C505.455 70.2033 504.888 68.4707 503.753 67.152C502.649 65.8027 501.147 65.128 499.245 65.128C496.731 65.128 494.645 66.094 492.989 68.026C491.333 69.958 490.505 72.304 490.505 75.064C490.505 77.2107 491.073 78.9587 492.207 80.308C493.342 81.6573 494.875 82.332 496.807 82.332C499.353 82.332 501.423 81.366 503.017 79.434C504.643 77.4407 505.455 75.0793 505.455 72.35ZM528.433 62.184L527.973 65.45C527.82 65.4193 527.559 65.404 527.191 65.404C524.492 65.404 522.453 66.1707 521.073 67.704C519.693 69.2373 518.758 71.798 518.267 75.386L516.933 85H513.529L516.703 62.46H520.015L519.601 65.45C520.705 64.254 521.855 63.4107 523.051 62.92C524.278 62.3987 525.734 62.138 527.421 62.138C527.881 62.138 528.218 62.1533 528.433 62.184ZM550.089 74.328L549.997 74.788H533.207C533.176 74.9413 533.161 75.248 533.161 75.708C533.161 77.7933 533.728 79.4187 534.863 80.584C536.028 81.7493 537.638 82.332 539.693 82.332C542.361 82.332 544.676 81.228 546.639 79.02L548.709 81.412C546.071 84.1413 542.928 85.506 539.279 85.506C536.335 85.506 533.989 84.6013 532.241 82.792C530.523 80.9827 529.665 78.5907 529.665 75.616C529.665 71.9053 530.799 68.6853 533.069 65.956C535.307 63.2573 538.205 61.908 541.763 61.908C544.707 61.908 546.869 62.8587 548.249 64.76C549.659 66.6307 550.365 68.8847 550.365 71.522C550.365 72.5953 550.273 73.5307 550.089 74.328ZM541.395 65.128C539.524 65.128 537.929 65.726 536.611 66.922C535.292 68.118 534.341 69.728 533.759 71.752H547.007C547.068 69.6973 546.608 68.0873 545.627 66.922C544.645 65.726 543.235 65.128 541.395 65.128ZM564.931 75.616L562.125 74.926C560.285 74.4967 558.859 73.7453 557.847 72.672C556.866 71.5987 556.375 70.2953 556.375 68.762C556.375 66.6767 557.172 65.0207 558.767 63.794C560.392 62.5367 562.34 61.908 564.609 61.908C567.921 61.908 570.574 63.1347 572.567 65.588L570.083 67.934C568.458 66.0327 566.572 65.082 564.425 65.082C563.106 65.082 562.018 65.4193 561.159 66.094C560.3 66.738 559.871 67.5813 559.871 68.624C559.871 69.36 560.132 69.9887 560.653 70.51C561.205 71.0313 561.987 71.3993 562.999 71.614L566.173 72.396C569.884 73.316 571.739 75.3247 571.739 78.422C571.739 80.538 570.896 82.2553 569.209 83.574C567.522 84.862 565.33 85.506 562.631 85.506C560.76 85.506 559.028 85.0767 557.433 84.218C555.838 83.3593 554.673 82.3473 553.937 81.182L556.375 78.928C557.08 79.9707 558.031 80.814 559.227 81.458C560.423 82.0713 561.665 82.378 562.953 82.378C564.64 82.378 565.943 82.056 566.863 81.412C567.814 80.768 568.289 79.8633 568.289 78.698C568.289 77.134 567.17 76.1067 564.931 75.616ZM586.718 75.616L583.912 74.926C582.072 74.4967 580.646 73.7453 579.634 72.672C578.653 71.5987 578.162 70.2953 578.162 68.762C578.162 66.6767 578.96 65.0207 580.554 63.794C582.18 62.5367 584.127 61.908 586.396 61.908C589.708 61.908 592.361 63.1347 594.354 65.588L591.87 67.934C590.245 66.0327 588.359 65.082 586.212 65.082C584.894 65.082 583.805 65.4193 582.946 66.094C582.088 66.738 581.658 67.5813 581.658 68.624C581.658 69.36 581.919 69.9887 582.44 70.51C582.992 71.0313 583.774 71.3993 584.786 71.614L587.96 72.396C591.671 73.316 593.526 75.3247 593.526 78.422C593.526 80.538 592.683 82.2553 590.996 83.574C589.31 84.862 587.117 85.506 584.418 85.506C582.548 85.506 580.815 85.0767 579.22 84.218C577.626 83.3593 576.46 82.3473 575.724 81.182L578.162 78.928C578.868 79.9707 579.818 80.814 581.014 81.458C582.21 82.0713 583.452 82.378 584.74 82.378C586.427 82.378 587.73 82.056 588.65 81.412C589.601 80.768 590.076 79.8633 590.076 78.698C590.076 77.134 588.957 76.1067 586.718 75.616Z" fill="#111827"/>
<path d="M103.027 20.4528L74.2908 4.03804C64.8886 -1.34601 53.3676 -1.34601 43.9654 4.03804L15.0965 20.4528C5.82673 25.8369 0 35.8171 0 46.4539V79.4148C0 90.1829 5.82673 100.032 15.0965 105.416L43.8329 121.962C53.2351 127.346 64.7562 127.346 74.1584 121.962L102.895 105.416C112.297 100.032 117.991 90.1829 117.991 79.4148V46.4539C118.256 35.8171 112.429 25.8369 103.027 20.4528ZM59.0619 92.284C42.7735 92.284 29.5309 79.1522 29.5309 63C29.5309 46.8478 42.7735 33.716 59.0619 33.716C75.3503 33.716 88.7253 46.8478 88.7253 63C88.7253 79.1522 75.4827 92.284 59.0619 92.284Z" fill="url(#paint0_linear_128_173)"/>
<defs>
<linearGradient id="paint0_linear_128_173" x1="0" y1="126" x2="142.187" y2="86.0197" gradientUnits="userSpaceOnUse">
<stop stop-color="#AAFFA9"/>
<stop offset="1" stop-color="#11FFBD"/>
</linearGradient>
</defs>
</svg>
